<?xml version="1.0" encoding="utf-8"?>
<!-- Generator: Adobe Illustrator 17.0.0, SVG Export Plug-In . SVG Version: 6.00 Build 0)  -->
<!DOCTYPE svg PUBLIC "-//W3C//DTD SVG 1.1//EN" "http://www.w3.org/Graphics/SVG/1.1/DTD/svg11.dtd">
<svg version="1.1" id="Logo" xmlns="http://www.w3.org/2000/svg" xmlns:xlink="http://www.w3.org/1999/xlink" x="0px" y="0px"
	 width="477px" height="97px" viewBox="0 0 477 97" enable-background="new 0 0 477 97" xml:space="preserve">
<g>
	<rect x="246.149" y="4.197" fill="#0BBBEF" width="17.462" height="85.039"/>
	<path fill="#0BBBEF" d="M109.865,4.197H17.212c-7.828,0-14.173,6.345-14.173,14.173v70.866h16.655V23.713
		c0-3.13,2.539-5.669,5.67-5.669H55.21v71.192h16.656V18.044h29.846c3.131,0,5.67,2.539,5.67,5.669v65.523h16.656V18.37
		C124.038,10.542,117.693,4.197,109.865,4.197z"/>
	<path fill="#0BBBEF" d="M141.753,18.37v56.693c0,7.827,6.345,14.173,14.173,14.173h72.263V75.389h-64.11
		c-3.132,0-5.67-2.538-5.67-5.67V53.647h66.292V39.786h-66.292V23.713c0-3.13,2.538-5.669,5.67-5.669h64.11V4.198l-72.263-0.001
		C148.098,4.197,141.753,10.542,141.753,18.37z"/>
	<path fill="#0BBBEF" d="M356.638,4.198h-74.579v13.846h61.724l-59.201,52.585c-9.497,8.12-3.318,18.608,4.567,18.608h75.426V75.39
		H301.64l59.295-52.585C370.501,14.199,364.746,4.198,356.638,4.198z"/>
	<path fill="#0BBBEF" d="M456.037,4.197v65.522c0,3.131-2.538,5.669-5.669,5.669v0.001h-47.579v-0.001
		c-3.132,0-5.67-2.538-5.67-5.669V4.197h-16.608v70.866c0,7.827,6.346,14.173,14.173,14.173h63.837
		c7.827,0,14.173-6.346,14.173-14.173V4.197H456.037z"/>
</g>
</svg>
